<?xml version="1.0" encoding="UTF-8"?>
<svg version="1.1" xmlns="http://www.w3.org/2000/svg" width="111" height="110">
<path d="M0 0 C36.63 0 73.26 0 111 0 C111 43.69488843 111 43.69488843 99.92114258 54.87768555 C98.3496313 56.23834863 96.77163364 57.59155337 95.1875 58.9375 C93.59637989 60.41939578 92.00613406 61.90223081 90.41674805 63.38598633 C81.11277364 71.68225264 73.06885217 76.85842776 60.3125 76.1875 C56.43501934 75.74182193 52.74933741 75.0828669 49 74 C50.31483573 71.08165783 51.71633276 69.05079071 54.01171875 66.828125 C54.60082031 66.250625 55.18992188 65.673125 55.796875 65.078125 C56.73273437 64.17320313 56.73273437 64.17320313 57.6875 63.25 C63.2741098 57.79536338 63.2741098 57.79536338 68.5 52 C72.36201357 47.42499931 76.66589924 43.28380699 80.93945312 39.09765625 C82.64544991 37.41632905 84.32473544 35.71188236 86 34 C86.74588379 33.28312012 86.74588379 33.28312012 87.50683594 32.55175781 C91.93188396 27.93611189 91.18711881 26.31593073 92 19 C67.58 19 43.16 19 18 19 C18 25.6 18 32.2 18 39 C15.05176398 43.53959565 13.5306269 45.58437998 9.5625 48.75 C8.76005859 49.47058594 7.95761719 50.19117188 7.13085938 50.93359375 C1.41305804 56 1.41305804 56 0 56 C0 37.52 0 19.04 0 0 Z " fill="#FD0808" transform="translate(0,0)"/>
<path d="M0 0 C1.16080078 0.03609375 2.32160156 0.0721875 3.51757812 0.109375 C6.36932388 0.20325963 9.21416795 0.33441781 12.0625 0.5 C5.73279117 7.92039893 -0.76740372 15.1731925 -7.39477539 22.32910156 C-8.42436423 23.44423149 -9.44959824 24.56339778 -10.47045898 25.68652344 C-12.79933946 28.24128697 -15.12579086 30.67401415 -17.66796875 33.0234375 C-25.69320913 40.7041922 -24.07765263 42.60228948 -24.9375 55.5 C-1.1775 55.5 22.5825 55.5 47.0625 55.5 C47.0625 48.24 47.0625 40.98 47.0625 33.5 C51.37956638 28.11479349 54.66011624 24.33666773 60.0625 20.5 C62.3725 18.85 64.6825 17.2 67.0625 15.5 C67.0625 34.64 67.0625 53.78 67.0625 73.5 C30.4325 73.5 -6.1975 73.5 -43.9375 73.5 C-43.9375 32.68723404 -43.9375 32.68723404 -29.265625 17.765625 C-28.24235777 16.75759252 -27.21645354 15.75222747 -26.1875 14.75 C-25.14840204 13.73707579 -24.11196332 12.72141688 -23.078125 11.703125 C-22.55935791 11.20167969 -22.04059082 10.70023438 -21.50610352 10.18359375 C-19.85846291 8.49577797 -19.85846291 8.49577797 -18.44506836 6.34765625 C-13.32834505 -0.75650266 -8.33960976 -0.49307528 0 0 Z " fill="#FD0908" transform="translate(43.9375,36.5)"/>
<path d="M0 0 C0.625 1.875 0.625 1.875 1 4 C0.34 4.66 -0.32 5.32 -1 6 C6.59 6 14.18 6 22 6 C21.01 7.485 21.01 7.485 20 9 C17.29443359 9.34057617 17.29443359 9.34057617 13.8984375 9.29296875 C12.08085938 9.2784668 12.08085938 9.2784668 10.2265625 9.26367188 C8.95554687 9.23853516 7.68453125 9.21339844 6.375 9.1875 C5.09625 9.17396484 3.8175 9.16042969 2.5 9.14648438 C-0.66708282 9.11103196 -3.83333541 9.06161441 -7 9 C-5.27845212 5.23511958 -3.00765886 2.84936103 0 0 Z " fill="#F23A3E" transform="translate(56,65)"/>
<path d="M0 0 C0.33 0 0.66 0 1 0 C1.375 2.125 1.375 2.125 1 5 C-2.13183428 9.44763966 -5.68676863 11.73494491 -11 13 C-10.62488281 12.56429687 -10.24976563 12.12859375 -9.86328125 11.6796875 C-9.35152344 11.08414063 -8.83976562 10.48859375 -8.3125 9.875 C-7.76851562 9.24207031 -7.22453125 8.60914063 -6.6640625 7.95703125 C-5.14955629 6.17588663 -3.66581794 4.37365561 -2.1875 2.5625 C-1.465625 1.716875 -0.74375 0.87125 0 0 Z " fill="#F3413C" transform="translate(68,52)"/>
<path d="M0 0 C0.66 1.32 1.32 2.64 2 4 C-0.64 6.64 -3.28 9.28 -6 12 C-6.33 10.68 -6.66 9.36 -7 8 C-6.34 8 -5.68 8 -5 8 C-5 7.34 -5 6.68 -5 6 C-4.34 6 -3.68 6 -3 6 C-3 5.34 -3 4.68 -3 4 C-2.01 4 -1.02 4 0 4 C0 2.68 0 1.36 0 0 Z " fill="#F95457" transform="translate(15,36)"/>
<path d="M0 0 C0.33 0 0.66 0 1 0 C1.375 2.25 1.375 2.25 1 5 C-2 7.3125 -2 7.3125 -5 9 C-5.66 8.67 -6.32 8.34 -7 8 C-5.85760183 6.66372225 -4.71098945 5.33104612 -3.5625 4 C-2.92441406 3.2575 -2.28632812 2.515 -1.62890625 1.75 C-1.09136719 1.1725 -0.55382812 0.595 0 0 Z " fill="#F84545" transform="translate(7,62)"/>
<path d="M0 0 C0.33 0 0.66 0 1 0 C1 3.96 1 7.92 1 12 C-0.65 12.33 -2.3 12.66 -4 13 C-3.525625 12.525625 -3.05125 12.05125 -2.5625 11.5625 C-0.31923904 7.88355203 -0.26260422 4.2378888 0 0 Z " fill="#FA5C5B" transform="translate(92,19)"/>
<path d="M0 0 C0.66 0.99 1.32 1.98 2 3 C0.68 3.33 -0.64 3.66 -2 4 C-2 4.99 -2 5.98 -2 7 C-3.32 6.67 -4.64 6.34 -6 6 C-4.02 4.02 -2.04 2.04 0 0 Z " fill="#F75558" transform="translate(75,45)"/>
<path d="M0 0 C0.33 1.32 0.66 2.64 1 4 C-1.375 5.5625 -1.375 5.5625 -4 7 C-4.66 6.67 -5.32 6.34 -6 6 C-4.02 4.02 -2.04 2.04 0 0 Z " fill="#F4534E" transform="translate(56,65)"/>
<path d="M0 0 C0.93423645 3.01031744 1.04449911 3.86650268 0 7 C-1.65 6.67 -3.3 6.34 -5 6 C-3.35 4.02 -1.7 2.04 0 0 Z " fill="#F64747" transform="translate(13,56)"/>
<path d="M0 0 C0 3.15081975 -0.27898465 4.41847698 -2 7 C-4.125 7.75 -4.125 7.75 -6 8 C-4.55746343 4.63408134 -2.66735273 2.48952921 0 0 Z " fill="#F86F74" transform="translate(31,37)"/>
<path d="M0 0 C1 3 1 3 0.375 5.125 C-1 7 -1 7 -3.625 7.75 C-4.800625 7.87375 -4.800625 7.87375 -6 8 C-4.02 5.36 -2.04 2.72 0 0 Z " fill="#F34041" transform="translate(87,32)"/>
</svg>
